<svg xmlns="http://www.w3.org/2000/svg" width="48" height="32" viewBox="0 0 48 32">
  <rect width="48" height="32" fill="#bf0a30"/>
  <rect y="2.46" width="48" height="2.46" fill="#ffffff"/>
  <rect y="7.38" width="48" height="2.46" fill="#ffffff"/>
  <rect y="12.31" width="48" height="2.46" fill="#ffffff"/>
  <rect y="17.23" width="48" height="2.46" fill="#ffffff"/>
  <rect y="22.15" width="48" height="2.46" fill="#ffffff"/>
  <rect y="27.08" width="48" height="2.46" fill="#ffffff"/>
  <rect width="19.2" height="17.23" fill="#002868"/>
  <g fill="#ffffff">
    <circle cx="3" cy="2" r="1"/><circle cx="7" cy="2" r="1"/><circle cx="11" cy="2" r="1"/><circle cx="15" cy="2" r="1"/>
    <circle cx="5" cy="4" r="1"/><circle cx="9" cy="4" r="1"/><circle cx="13" cy="4" r="1"/>
    <circle cx="3" cy="6" r="1"/><circle cx="7" cy="6" r="1"/><circle cx="11" cy="6" r="1"/><circle cx="15" cy="6" r="1"/>
    <circle cx="5" cy="8" r="1"/><circle cx="9" cy="8" r="1"/><circle cx="13" cy="8" r="1"/>
    <circle cx="3" cy="10" r="1"/><circle cx="7" cy="10" r="1"/><circle cx="11" cy="10" r="1"/><circle cx="15" cy="10" r="1"/>
    <circle cx="5" cy="12" r="1"/><circle cx="9" cy="12" r="1"/><circle cx="13" cy="12" r="1"/>
    <circle cx="3" cy="14" r="1"/><circle cx="7" cy="14" r="1"/><circle cx="11" cy="14" r="1"/><circle cx="15" cy="14" r="1"/>
  </g>
</svg>
